<?xml version="1.0" encoding="utf-8"?>
<!-- Generator: Adobe Illustrator 20.1.0, SVG Export Plug-In . SVG Version: 6.00 Build 0)  -->
<svg version="1.1" id="Layer_1" xmlns="http://www.w3.org/2000/svg" xmlns:xlink="http://www.w3.org/1999/xlink" x="0px" y="0px"
	 viewBox="0 0 259.4 259" style="enable-background:new 0 0 259.4 259;" xml:space="preserve">
<style type="text/css">
	.st0{fill:#071D49;}
</style>
<path class="st0" d="M4.2,86H58v173H4.2V86z M31.2,0c17.2,0,31.2,14,31.2,31.2s-14,31.2-31.2,31.2C13.9,62.4,0,48.4,0,31.2
	S13.9,0,31.2,0 M91.8,86h51.5v23.7h0.7c7.2-13.6,24.7-27.9,50.9-27.9c54.4,0,64.5,35.8,64.5,82.4V259h-53.7v-84.1
	c0-20.1-0.3-45.9-27.9-45.9c-28,0-32.2,21.9-32.2,44.4V259H91.9L91.8,86L91.8,86z"/>
</svg>
